<?xml version="1.0" encoding="UTF-8"?>
<svg width="21px" height="22px" viewBox="0 0 21 22" version="1.1" xmlns="http://www.w3.org/2000/svg" xmlns:xlink="http://www.w3.org/1999/xlink">
    <!-- Generator: Sketch 64 (93537) - https://sketch.com -->
    <title>Page 1</title>
    <desc>Created with Sketch.</desc>
    <g id="Page-1" stroke="none" stroke-width="1" fill="none" fill-rule="evenodd">
        <g id="01.Index" transform="translate(-351.000000, -605.000000)">
            <g id="filtro-lateral" transform="translate(132.000000, 590.000000)">
                <g id="filtro-localizacao">
                    <g id="input">
                        <rect stroke="#BDBDBD" x="0.5" y="0.5" width="252" height="49" rx="6"></rect>
                        <g id="search" transform="translate(219.000000, 14.700010)" fill="#4239BC">
                            <path d="M8.5,0.29999 C3.81898923,0.29999 0,4.11897709 0,8.79999 C0,13.4810029 3.81898923,17.29999 8.5,17.29999 C13.1810108,17.29999 17,13.4810029 17,8.79999 C17,4.11897709 13.1810108,0.29999 8.5,0.29999 Z M8.5,2.56720638 C11.9560134,2.56720638 14.7327757,5.34396228 14.7327757,8.79999 C14.7327757,12.2559963 11.9560134,15.0327522 8.5,15.0327522 C5.04398685,15.0327522 2.26722452,12.2559963 2.26722452,8.79999 C2.26722452,5.34396228 5.04398685,2.56720638 8.5,2.56720638 Z" id="Shape" fill-rule="nonzero"></path>
                            <path d="M14.0649868,14.29999 C13.6316565,14.3001921 13.2416158,14.5627344 13.0784503,14.9640427 C12.9152847,15.365351 13.0115025,15.8254707 13.3218156,16.1278315 L19.1806794,21.9887382 C19.4504034,22.2576727 19.8431597,22.3623289 20.2110009,22.2632836 C20.5788421,22.1642384 20.8658844,21.8765391 20.9640016,21.5085594 C21.0621188,21.1405796 20.9564047,20.7482242 20.6866808,20.4792897 L14.8278185,14.6223076 C14.6274237,14.4164295 14.3523388,14.3001985 14.0649868,14.29999 Z" id="Path"></path>
                        </g>
                    </g>
                </g>
            </g>
        </g>
    </g>
</svg>
