<?xml version="1.0" encoding="UTF-8"?>
<svg width="201px" height="76px" viewBox="0 0 201 76" version="1.1" xmlns="http://www.w3.org/2000/svg" xmlns:xlink="http://www.w3.org/1999/xlink">
    <!-- Generator: Sketch 64 (93537) - https://sketch.com -->
    <title>logo-empregonacrise</title>
    <desc>Created with Sketch.</desc>
    <defs>
        <polygon id="path-1" points="0.4761 0.2268 12.902 0.2268 12.902 16.3618 0.4761 16.3618"></polygon>
        <polygon id="path-3" points="0.2717 0.583 35.5747 0.583 35.5747 75.9992 0.2717 75.9992"></polygon>
    </defs>
    <g id="Page-1" stroke="none" stroke-width="1" fill="none" fill-rule="evenodd">
        <g id="01.Index" transform="translate(-131.000000, -35.000000)">
            <g id="bg" fill="#322972">
                <rect id="base" x="0" y="0" width="1440" height="480"></rect>
            </g>
            <g id="logo-empregonacrise" transform="translate(131.000000, 34.000000)">
                <path d="M81.2461,69.3404 L75.0001,69.3404 L75.0001,7.6234 L81.2461,7.6234 C84.7731,7.6234 87.6601,10.5104 87.6601,14.0374 L87.6601,62.9274 C87.6601,66.4544 84.7731,69.3404 81.2461,69.3404" id="Fill-1" fill="#00DF7D"></path>
                <path d="M102.8994,33.398 C102.8014,33.294 102.7524,33.167 102.7524,33.017 L102.7524,18.428 C102.7524,18.264 102.7974,18.129 102.8894,18.025 C102.9804,17.92 103.1034,17.868 103.2584,17.868 L112.5634,17.868 C112.7174,17.868 112.8444,17.92 112.9424,18.025 C113.0414,18.129 113.0904,18.264 113.0904,18.428 L113.0904,19.929 C113.0904,20.094 113.0414,20.225 112.9424,20.322 C112.8444,20.419 112.7174,20.467 112.5634,20.467 L105.6424,20.467 L105.6424,24.389 L112.0984,24.389 C112.2534,24.389 112.3794,24.442 112.4784,24.546 C112.5774,24.651 112.6264,24.786 112.6264,24.95 L112.6264,26.362 C112.6264,26.526 112.5774,26.657 112.4784,26.753 C112.3794,26.851 112.2534,26.899 112.0984,26.899 L105.6424,26.899 L105.6424,30.956 L112.7314,30.956 C112.8864,30.956 113.0124,31.004 113.1114,31.101 C113.2104,31.199 113.2594,31.33 113.2594,31.494 L113.2594,33.017 C113.2594,33.182 113.2104,33.313 113.1114,33.41 C113.0124,33.507 112.8864,33.555 112.7314,33.555 L103.2584,33.555 C103.1184,33.555 102.9984,33.503 102.8994,33.398" id="Fill-3" fill="#FFFFFF"></path>
                <path d="M116.044,33.398 C115.946,33.294 115.897,33.167 115.897,33.017 L115.897,18.428 C115.897,18.264 115.942,18.129 116.034,18.025 C116.125,17.92 116.248,17.868 116.403,17.868 L118.112,17.868 C118.379,17.868 118.59,18.01 118.745,18.294 L122.817,26.317 L126.889,18.294 C127.044,18.01 127.255,17.868 127.523,17.868 L129.21,17.868 C129.364,17.868 129.491,17.92 129.59,18.025 C129.689,18.129 129.737,18.264 129.737,18.428 L129.737,33.017 C129.737,33.182 129.689,33.313 129.59,33.41 C129.491,33.507 129.364,33.555 129.21,33.555 L127.396,33.555 C127.255,33.555 127.135,33.503 127.037,33.398 C126.939,33.294 126.889,33.167 126.889,33.017 L126.889,23.38 L123.956,29.297 C123.802,29.627 123.569,29.791 123.26,29.791 L122.374,29.791 C122.079,29.791 121.839,29.627 121.656,29.297 L118.724,23.38 L118.724,33.017 C118.724,33.167 118.678,33.294 118.587,33.398 C118.495,33.503 118.372,33.555 118.218,33.555 L116.403,33.555 C116.263,33.555 116.143,33.503 116.044,33.398" id="Fill-5" fill="#FFFFFF"></path>
                <path d="M139.084,25.2633 C139.899,25.2633 140.521,25.0583 140.951,24.6473 C141.38,24.2363 141.595,23.6353 141.595,22.8433 C141.595,22.0663 141.387,21.4613 140.973,21.0283 C140.558,20.5943 139.928,20.3773 139.084,20.3773 L136.046,20.3773 L136.046,25.2633 L139.084,25.2633 Z M133.176,33.3983 C133.078,33.2943 133.028,33.1663 133.028,33.0173 L133.028,18.4283 C133.028,18.2643 133.074,18.1293 133.166,18.0253 C133.257,17.9203 133.38,17.8673 133.535,17.8673 L139.189,17.8673 C140.891,17.8673 142.228,18.2933 143.198,19.1453 C144.169,19.9963 144.654,21.2373 144.654,22.8663 C144.654,24.4793 144.169,25.7003 143.198,26.5303 C142.228,27.3593 140.891,27.7733 139.189,27.7733 L136.088,27.7733 L136.088,33.0173 C136.088,33.1823 136.038,33.3133 135.94,33.4093 C135.842,33.5073 135.715,33.5553 135.561,33.5553 L133.535,33.5553 C133.395,33.5553 133.274,33.5033 133.176,33.3983 L133.176,33.3983 Z" id="Fill-7" fill="#FFFFFF"></path>
                <path d="M152.8613,25.0845 C153.7053,25.0845 154.3383,24.8865 154.7593,24.4895 C155.1813,24.0945 155.3923,23.5155 155.3923,22.7535 C155.3923,21.9915 155.1813,21.4045 154.7593,20.9935 C154.3383,20.5835 153.7053,20.3775 152.8613,20.3775 L149.9283,20.3775 L149.9283,25.0845 L152.8613,25.0845 Z M147.1003,33.3975 C147.0033,33.2945 146.9533,33.1665 146.9533,33.0175 L146.9533,18.4285 C146.9533,18.2645 146.9993,18.1295 147.0903,18.0245 C147.1813,17.9205 147.3043,17.8675 147.4603,17.8675 L152.9233,17.8675 C154.6543,17.8675 156.0073,18.2935 156.9853,19.1455 C157.9633,19.9965 158.4523,21.2065 158.4523,22.7755 C158.4523,23.8665 158.2063,24.7815 157.7143,25.5215 C157.2203,26.2605 156.5323,26.7955 155.6463,27.1235 L158.7053,32.8385 C158.7473,32.9275 158.7683,33.0105 158.7683,33.0845 C158.7683,33.2195 158.7223,33.3315 158.6323,33.4205 C158.5403,33.5105 158.4373,33.5555 158.3253,33.5555 L156.3843,33.5555 C156.1593,33.5555 155.9833,33.4995 155.8573,33.3875 C155.7303,33.2745 155.6173,33.1295 155.5193,32.9495 L152.8183,27.6395 L149.9283,27.6395 L149.9283,33.0175 C149.9283,33.1665 149.8793,33.2945 149.7803,33.3975 C149.6813,33.5035 149.5553,33.5555 149.4003,33.5555 L147.4603,33.5555 C147.3193,33.5555 147.1993,33.5035 147.1003,33.3975 L147.1003,33.3975 Z" id="Fill-9" fill="#FFFFFF"></path>
                <path d="M161.3213,33.398 C161.2233,33.294 161.1743,33.167 161.1743,33.017 L161.1743,18.428 C161.1743,18.264 161.2193,18.129 161.3113,18.025 C161.4023,17.92 161.5253,17.868 161.6803,17.868 L170.9853,17.868 C171.1393,17.868 171.2663,17.92 171.3643,18.025 C171.4633,18.129 171.5123,18.264 171.5123,18.428 L171.5123,19.929 C171.5123,20.094 171.4633,20.225 171.3643,20.322 C171.2663,20.419 171.1393,20.467 170.9853,20.467 L164.0643,20.467 L164.0643,24.389 L170.5203,24.389 C170.6753,24.389 170.8013,24.442 170.9003,24.546 C170.9993,24.651 171.0483,24.786 171.0483,24.95 L171.0483,26.362 C171.0483,26.526 170.9993,26.657 170.9003,26.753 C170.8013,26.851 170.6753,26.899 170.5203,26.899 L164.0643,26.899 L164.0643,30.956 L171.1533,30.956 C171.3083,30.956 171.4343,31.004 171.5333,31.101 C171.6323,31.199 171.6813,31.33 171.6813,31.494 L171.6813,33.017 C171.6813,33.182 171.6323,33.313 171.5333,33.41 C171.4343,33.507 171.3083,33.555 171.1533,33.555 L161.6803,33.555 C161.5403,33.555 161.4203,33.503 161.3213,33.398" id="Fill-11" fill="#FFFFFF"></path>
                <path d="M175.4258,32.1881 C174.3498,31.1271 173.7768,29.6481 173.7058,27.7511 C173.6928,27.3181 173.6858,26.6231 173.6858,25.6671 C173.6858,24.7101 173.6928,24.0161 173.7058,23.5831 C173.7628,21.7301 174.3388,20.2771 175.4368,19.2241 C176.5328,18.1701 178.0378,17.6441 179.9508,17.6441 C181.2448,17.6441 182.3608,17.8791 183.2958,18.3501 C184.2318,18.8201 184.9378,19.4031 185.4158,20.0981 C185.8948,20.7921 186.1478,21.4761 186.1758,22.1481 C186.1758,22.2831 186.1338,22.3951 186.0488,22.4851 C185.9648,22.5741 185.8518,22.6191 185.7118,22.6191 L183.4958,22.6191 C183.3558,22.6191 183.2498,22.5891 183.1798,22.5291 C183.1098,22.4691 183.0458,22.3731 182.9898,22.2381 C182.7928,21.6851 182.4478,21.2141 181.9558,20.8261 C181.4638,20.4381 180.7958,20.2441 179.9508,20.2441 C178.9668,20.2441 178.1968,20.5241 177.6418,21.0841 C177.0848,21.6441 176.7938,22.5141 176.7658,23.6951 C176.7518,24.1281 176.7438,24.7861 176.7438,25.6671 C176.7438,26.5341 176.7518,27.1911 176.7658,27.6391 C176.7938,28.8491 177.0888,29.7421 177.6518,30.3171 C178.2138,30.8921 178.9888,31.1791 179.9728,31.1791 C180.9718,31.1791 181.7738,30.8961 182.3778,30.3281 C182.9828,29.7601 183.2848,28.9091 183.2848,27.7731 L183.2848,27.0791 L180.7108,27.0791 C180.5708,27.0791 180.4498,27.0271 180.3528,26.9211 C180.2538,26.8171 180.2048,26.6901 180.2048,26.5411 L180.2048,25.3081 C180.2048,25.1591 180.2538,25.0321 180.3528,24.9271 C180.4498,24.8231 180.5708,24.7701 180.7108,24.7701 L185.7748,24.7701 C185.9298,24.7701 186.0558,24.8231 186.1548,24.9271 C186.2528,25.0321 186.3028,25.1591 186.3028,25.3081 L186.3028,27.6841 C186.3028,28.9241 186.0418,30.0031 185.5218,30.9221 C185.0008,31.8401 184.2628,32.5461 183.3068,33.0401 C182.3498,33.5331 181.2318,33.7791 179.9508,33.7791 C178.0108,33.7791 176.5018,33.2501 175.4258,32.1881" id="Fill-13" fill="#FFFFFF"></path>
                <g id="Group-17" transform="translate(188.000000, 17.417000)">
                    <mask id="mask-2" fill="white">
                        <use xlink:href="#path-1"></use>
                    </mask>
                    <g id="Clip-16"></g>
                    <path d="M8.9151,12.8668 C9.4631,12.2688 9.7591,11.3498 9.8011,10.1098 C9.8291,9.2138 9.8431,8.6078 9.8431,8.2948 C9.8431,7.9508 9.8291,7.3458 9.8011,6.4788 C9.7591,5.2548 9.4561,4.3398 8.8941,3.7338 C8.3311,3.1298 7.5931,2.8268 6.6791,2.8268 C5.7501,2.8268 5.0041,3.1298 4.4411,3.7338 C3.8791,4.3398 3.5841,5.2548 3.5561,6.4788 C3.5421,6.9128 3.5341,7.5178 3.5341,8.2948 C3.5341,9.0558 3.5421,9.6618 3.5561,10.1098 C3.5841,11.3358 3.8751,12.2498 4.4321,12.8548 C4.9861,13.4608 5.7351,13.7628 6.6791,13.7628 C7.6201,13.7628 8.3661,13.4648 8.9151,12.8668 M2.1851,14.8158 C1.1151,13.7848 0.5531,12.2538 0.4961,10.2218 C0.4821,9.7888 0.4761,9.1538 0.4761,8.3168 C0.4761,7.4658 0.4821,6.8228 0.4961,6.3888 C0.5531,4.4028 1.1291,2.8788 2.2271,1.8178 C3.3231,0.7578 4.8081,0.2268 6.6791,0.2268 C8.5351,0.2268 10.0161,0.7578 11.1191,1.8178 C12.2241,2.8788 12.8041,4.4028 12.8601,6.3888 C12.8891,7.2568 12.9021,7.8988 12.9021,8.3168 C12.9021,8.7208 12.8891,9.3558 12.8601,10.2218 C12.8041,12.2538 12.2381,13.7848 11.1621,14.8158 C10.0861,15.8468 8.5911,16.3618 6.6791,16.3618 C4.7511,16.3618 3.2531,15.8468 2.1851,14.8158" id="Fill-15" fill="#FFFFFF" mask="url(#mask-2)"></path>
                </g>
                <path d="M10.5879,36.9625 L14.7799,36.9625 C15.6139,36.9625 16.2969,37.6455 16.2969,38.4795 L16.2969,38.9375 C16.2969,39.7725 15.6139,40.4545 14.7799,40.4545 L10.5879,40.4545 C9.7529,40.4545 9.0699,39.7725 9.0699,38.9375 L9.0699,38.4795 C9.0699,37.6455 9.7529,36.9625 10.5879,36.9625" id="Fill-18" fill="#FFFFFF"></path>
                <path d="M60.6856,40.9556 L63.6496,37.9916 C64.2406,37.4006 65.2056,37.4006 65.7956,37.9916 L66.1196,38.3146 C66.7096,38.9056 66.7096,39.8706 66.1196,40.4616 L63.1556,43.4256 C62.5656,44.0156 61.5996,44.0156 61.0096,43.4256 L60.6856,43.1016 C60.0956,42.5116 60.0956,41.5456 60.6856,40.9556" id="Fill-20" fill="#4239BC"></path>
                <g id="Group-24" transform="translate(40.000000, 0.417000)">
                    <mask id="mask-4" fill="white">
                        <use xlink:href="#path-3"></use>
                    </mask>
                    <g id="Clip-23"></g>
                    <path d="M4.4697,10.3082 C4.1917,10.3082 3.7717,10.7912 3.7717,11.5202 L3.7717,64.6182 C3.7717,65.3452 4.1917,65.8292 4.4697,65.8292 L4.6837,65.8292 L4.8907,65.8802 L31.4917,72.4752 C31.7577,72.3692 32.0747,71.9202 32.0747,71.2872 L32.0747,5.2942 C32.0747,4.6552 31.7517,4.2042 31.4847,4.1042 L4.6697,10.3082 L4.4697,10.3082 Z M31.3767,75.9992 L31.1627,75.9992 L30.9557,75.9482 L4.2237,69.3212 C2.0227,69.1772 0.2717,67.1222 0.2717,64.6182 L0.2717,11.5202 C0.2717,9.0082 2.0317,6.9502 4.2397,6.8152 L31.1767,0.5822 L31.3767,0.5822 C33.6917,0.5822 35.5747,2.6962 35.5747,5.2942 L35.5747,71.2872 C35.5747,73.8862 33.6917,75.9992 31.3767,75.9992 L31.3767,75.9992 Z" id="Fill-22" fill="#4239BC" mask="url(#mask-4)"></path>
                </g>
                <path d="M103.2422,56.315 C103.1512,56.211 103.1052,56.078 103.1052,55.918 L103.1052,40.159 C103.1052,39.981 103.1512,39.84 103.2422,39.736 C103.3332,39.631 103.4542,39.579 103.6052,39.579 L104.6052,39.579 C104.7572,39.579 104.8702,39.612 104.9462,39.675 C105.0212,39.74 105.0972,39.821 105.1742,39.917 L112.7852,52.37 L112.7852,40.159 C112.7852,39.981 112.8342,39.84 112.9322,39.736 C113.0312,39.631 113.1562,39.579 113.3072,39.579 L114.3302,39.579 C114.4962,39.579 114.6292,39.631 114.7272,39.736 C114.8262,39.84 114.8752,39.981 114.8752,40.159 L114.8752,55.893 C114.8752,56.054 114.8262,56.191 114.7272,56.303 C114.6292,56.416 114.5042,56.472 114.3522,56.472 L113.3302,56.472 C113.0722,56.472 112.8902,56.36 112.7852,56.134 L105.1742,43.802 L105.1742,55.918 C105.1742,56.078 105.1242,56.211 105.0252,56.315 C104.9272,56.42 104.8022,56.472 104.6502,56.472 L103.6052,56.472 C103.4542,56.472 103.3332,56.42 103.2422,56.315" id="Fill-25" fill="#FFFFFF"></path>
                <path d="M121.3272,50.5836 L127.5532,50.5836 L124.4402,41.9206 L121.3272,50.5836 Z M117.4422,56.3276 C117.3512,56.2306 117.3062,56.1186 117.3062,55.9896 L117.3512,55.7246 L122.9862,40.1096 C123.1072,39.7566 123.3492,39.5786 123.7132,39.5786 L125.1672,39.5786 C125.5312,39.5786 125.7722,39.7566 125.8942,40.1096 L131.5292,55.7246 L131.5742,55.9896 C131.5742,56.1186 131.5252,56.2306 131.4272,56.3276 C131.3282,56.4246 131.2192,56.4726 131.0982,56.4726 L130.0292,56.4726 C129.8782,56.4726 129.7532,56.4286 129.6542,56.3396 C129.5562,56.2516 129.4912,56.1586 129.4622,56.0626 L128.1892,52.5866 L120.6692,52.5866 L119.4192,56.0626 C119.2982,56.3356 119.1082,56.4726 118.8502,56.4726 L117.7612,56.4726 C117.6392,56.4726 117.5332,56.4246 117.4422,56.3276 L117.4422,56.3276 Z" id="Fill-27" fill="#FFFFFF"></path>
                <path d="M140.084,54.9634 C139.03,53.7974 138.467,52.2004 138.391,50.1734 C138.376,49.7384 138.368,49.0314 138.368,48.0494 C138.368,47.0524 138.376,46.3284 138.391,45.8774 C138.467,43.8514 139.03,42.2544 140.084,41.0874 C141.136,39.9214 142.67,39.3374 144.685,39.3374 C146.032,39.3374 147.176,39.5914 148.115,40.0984 C149.055,40.6054 149.763,41.2684 150.239,42.0894 C150.717,42.9094 150.978,43.7864 151.023,44.7194 C151.023,44.8634 150.974,44.9814 150.876,45.0684 C150.777,45.1574 150.66,45.2014 150.523,45.2014 L149.388,45.2014 C149.236,45.2014 149.115,45.1614 149.024,45.0814 C148.934,45.0014 148.865,44.8634 148.819,44.6714 C148.562,43.4324 148.096,42.5644 147.422,42.0654 C146.748,41.5664 145.835,41.3174 144.685,41.3174 C142.049,41.3174 140.678,42.8774 140.572,45.9984 C140.557,46.4334 140.549,47.1014 140.549,48.0014 C140.549,48.9024 140.557,49.5864 140.572,50.0534 C140.678,53.1574 142.049,54.7104 144.685,54.7104 C145.82,54.7104 146.73,54.4614 147.411,53.9624 C148.093,53.4634 148.562,52.6034 148.819,51.3804 C148.865,51.1874 148.934,51.0504 149.024,50.9704 C149.115,50.8894 149.236,50.8494 149.388,50.8494 L150.523,50.8494 C150.66,50.8494 150.777,50.8944 150.876,50.9824 C150.974,51.0704 151.023,51.1874 151.023,51.3314 C150.978,52.2654 150.717,53.1424 150.239,53.9624 C149.763,54.7824 149.055,55.4464 148.115,55.9534 C147.176,56.4604 146.032,56.7134 144.685,56.7134 C142.67,56.7134 141.136,56.1304 140.084,54.9634" id="Fill-29" fill="#FFFFFF"></path>
                <path d="M160.0654,47.6636 C162.3524,47.6636 163.4964,46.6426 163.4964,44.5996 C163.4964,42.5566 162.3524,41.5336 160.0654,41.5336 L156.2484,41.5336 L156.2484,47.6636 L160.0654,47.6636 Z M154.2494,56.3146 C154.1584,56.2106 154.1124,56.0776 154.1124,55.9176 L154.1124,40.1586 C154.1124,39.9806 154.1584,39.8406 154.2494,39.7356 C154.3394,39.6316 154.4614,39.5786 154.6124,39.5786 L160.1564,39.5786 C161.8824,39.5786 163.2354,40.0096 164.2114,40.8706 C165.1884,41.7306 165.6774,42.9816 165.6774,44.6226 C165.6774,45.8466 165.3894,46.8516 164.8144,47.6396 C164.2384,48.4286 163.4354,48.9756 162.4054,49.2806 L165.9044,55.7246 C165.9504,55.8206 165.9724,55.9096 165.9724,55.9896 C165.9724,56.1186 165.9274,56.2306 165.8364,56.3276 C165.7454,56.4246 165.6394,56.4726 165.5184,56.4726 L164.5184,56.4726 C164.2914,56.4726 164.1134,56.4156 163.9844,56.3036 C163.8554,56.1906 163.7384,56.0296 163.6324,55.8206 L160.2934,49.6426 L156.2484,49.6426 L156.2484,55.9176 C156.2484,56.0776 156.1954,56.2106 156.0894,56.3146 C155.9834,56.4206 155.8544,56.4726 155.7034,56.4726 L154.6124,56.4726 C154.4614,56.4726 154.3394,56.4206 154.2494,56.3146 L154.2494,56.3146 Z" id="Fill-31" fill="#FFFFFF"></path>
                <path d="M169.1084,56.315 C169.0174,56.211 168.9714,56.078 168.9714,55.918 L168.9714,40.134 C168.9714,39.973 169.0174,39.84 169.1084,39.736 C169.1994,39.631 169.3204,39.579 169.4714,39.579 L170.6084,39.579 C170.7744,39.579 170.9034,39.628 170.9944,39.724 C171.0854,39.821 171.1304,39.958 171.1304,40.134 L171.1304,55.918 C171.1304,56.078 171.0814,56.211 170.9824,56.315 C170.8834,56.42 170.7584,56.472 170.6084,56.472 L169.4714,56.472 C169.3204,56.472 169.1994,56.42 169.1084,56.315" id="Fill-33" fill="#FFFFFF"></path>
                <path d="M176.958,56.0865 C176.042,55.6675 175.345,55.1165 174.868,54.4335 C174.391,53.7495 174.137,53.0135 174.106,52.2255 C174.106,52.0965 174.152,51.9835 174.243,51.8875 C174.334,51.7905 174.447,51.7415 174.584,51.7415 L175.697,51.7415 C175.97,51.7415 176.159,51.9025 176.266,52.2255 C176.401,52.9005 176.791,53.4835 177.436,53.9745 C178.079,54.4655 178.999,54.7105 180.196,54.7105 C181.483,54.7105 182.445,54.4695 183.081,53.9865 C183.718,53.5035 184.036,52.8365 184.036,51.9835 C184.036,51.4375 183.88,50.9855 183.57,50.6325 C183.26,50.2775 182.798,49.9685 182.184,49.7025 C181.57,49.4375 180.65,49.1115 179.424,48.7255 C178.257,48.3715 177.329,47.9935 176.641,47.5915 C175.951,47.1895 175.432,46.6945 175.084,46.1075 C174.735,45.5205 174.562,44.7755 174.562,43.8745 C174.562,43.0065 174.78,42.2305 175.22,41.5465 C175.659,40.8615 176.296,40.3235 177.129,39.9295 C177.962,39.5345 178.946,39.3375 180.082,39.3375 C181.264,39.3375 182.274,39.5595 183.115,40.0015 C183.956,40.4435 184.596,40.9995 185.035,41.6665 C185.475,42.3345 185.709,43.0065 185.74,43.6825 C185.74,43.8265 185.694,43.9465 185.604,44.0435 C185.513,44.1405 185.399,44.1885 185.263,44.1885 L184.127,44.1885 C184.005,44.1885 183.892,44.1485 183.786,44.0675 C183.68,43.9875 183.604,43.8665 183.559,43.7055 C183.468,43.0145 183.104,42.4425 182.468,41.9925 C181.832,41.5425 181.036,41.3165 180.082,41.3165 C179.052,41.3165 178.234,41.5295 177.629,41.9565 C177.022,42.3825 176.72,43.0145 176.72,43.8515 C176.72,44.4135 176.859,44.8725 177.14,45.2265 C177.42,45.5805 177.852,45.8945 178.436,46.1675 C179.018,46.4405 179.87,46.7545 180.991,47.1085 C182.278,47.4945 183.289,47.8805 184.024,48.2675 C184.759,48.6525 185.308,49.1325 185.672,49.7025 C186.035,50.2745 186.217,51.0105 186.217,51.9105 C186.217,53.4235 185.675,54.6025 184.593,55.4465 C183.509,56.2915 182.044,56.7135 180.196,56.7135 C178.954,56.7135 177.875,56.5045 176.958,56.0865" id="Fill-35" fill="#FFFFFF"></path>
                <path d="M189.3516,56.315 C189.2606,56.211 189.2146,56.078 189.2146,55.918 L189.2146,40.159 C189.2146,39.981 189.2606,39.84 189.3516,39.736 C189.4426,39.631 189.5636,39.579 189.7146,39.579 L199.0526,39.579 C199.2196,39.579 199.3526,39.631 199.4516,39.736 C199.5486,39.84 199.5986,39.981 199.5986,40.159 L199.5986,41.027 C199.5986,41.188 199.5486,41.317 199.4516,41.414 C199.3526,41.509 199.2196,41.558 199.0526,41.558 L191.3056,41.558 L191.3056,46.94 L198.5536,46.94 C198.7196,46.94 198.8526,46.992 198.9516,47.096 C199.0486,47.202 199.0986,47.342 199.0986,47.519 L199.0986,48.339 C199.0986,48.501 199.0486,48.633 198.9516,48.738 C198.8526,48.842 198.7196,48.894 198.5536,48.894 L191.3056,48.894 L191.3056,54.469 L199.2356,54.469 C199.4016,54.469 199.5346,54.522 199.6326,54.627 C199.7306,54.731 199.7806,54.872 199.7806,55.048 L199.7806,55.918 C199.7806,56.078 199.7266,56.211 199.6216,56.315 C199.5146,56.42 199.3856,56.472 199.2356,56.472 L189.7146,56.472 C189.5636,56.472 189.4426,56.42 189.3516,56.315" id="Fill-37" fill="#FFFFFF"></path>
                <path d="M36.2901,65.7789 L6.3061,65.7789 C4.7971,65.7789 3.5611,64.5439 3.5611,63.0349 L3.5611,13.9289 C3.5611,12.4209 4.7971,11.1859 6.3061,11.1859 L36.2901,11.1859 L36.2901,7.6239 L6.3061,7.6239 C2.8281,7.6239 0.0001,10.4529 0.0001,13.9289 L0.0001,63.0349 C0.0001,66.5119 2.8281,69.3409 6.3061,69.3409 L36.2901,69.3409 L36.2901,65.7789 Z" id="Fill-39" fill="#FFFFFF"></path>
            </g>
        </g>
    </g>
</svg>
