<?xml version="1.0" encoding="iso-8859-1"?>
<!-- Generator: Adobe Illustrator 19.0.0, SVG Export Plug-In . SVG Version: 6.00 Build 0)  -->
<svg version="1.1" id="Capa_1" xmlns="http://www.w3.org/2000/svg" xmlns:xlink="http://www.w3.org/1999/xlink" x="0px" y="0px"
	 viewBox="0 0 355.272 355.272" style="enable-background:new 0 0 355.272 355.272;" xml:space="preserve">
<g>
	<g>
		<g>
			<path fill="#DC143C" d="M177.521,73.143c5.771,0,10.449-4.678,10.449-10.449V10.449C187.97,4.678,183.292,0,177.521,0
				s-10.449,4.678-10.449,10.449v52.245C167.072,68.465,171.751,73.143,177.521,73.143z"/>
			<path fill="#DC143C" d="M336.16,52.889c-0.275-0.23-0.561-0.445-0.859-0.644c-4.617-3.462-11.166-2.527-14.629,2.09l-31.347,41.796
				c-3.462,4.617-2.527,11.166,2.09,14.629c1.903,1.166,4.048,1.881,6.269,2.09c3.27-0.077,6.335-1.61,8.359-4.18l31.347-41.796
				C340.913,62.672,340.362,56.411,336.16,52.889z"/>
			<path fill="#DC143C" d="M63.628,110.759c4.617-3.462,5.552-10.012,2.09-14.629L34.37,54.335c-3.463-4.617-10.012-5.552-14.629-2.09
				s-5.552,10.012-2.09,14.629l31.347,41.796c2.024,2.57,5.089,4.102,8.359,4.18C59.58,112.64,61.724,111.925,63.628,110.759z"/>
			<path fill="#DC143C" d="M296.64,198.008c-7.837-36.571-34.482-60.604-68.441-60.604c-18.229,0.594-35.869,6.595-50.678,17.241
				c-14.925-10.803-32.781-16.815-51.2-17.241c-33.959,0-60.604,23.51-67.918,60.604c-9.927,51.2,20.898,119.118,112.327,156.212
				c4.419,1.402,9.164,1.402,13.584,0c90.906-36.571,121.731-104.49,112.327-155.69V198.008z M177.521,334.367
				c-79.412-32.392-106.58-89.861-98.22-132.702c5.224-26.645,22.988-43.363,47.02-43.363c16.445,0.748,32.207,6.796,44.931,17.241
				c3.768,2.624,8.771,2.624,12.539,0c15.673-10.971,30.302-17.241,44.408-17.241c24.033,0,42.318,17.241,48.065,43.886
				C284.101,245.029,256.934,301.976,177.521,334.367z"/>
		</g>
	</g>
</g>
<g>
</g>
<g>
</g>
<g>
</g>
<g>
</g>
<g>
</g>
<g>
</g>
<g>
</g>
<g>
</g>
<g>
</g>
<g>
</g>
<g>
</g>
<g>
</g>
<g>
</g>
<g>
</g>
<g>
</g>
</svg>
